<svg id="Layer_1" data-name="Layer 1" xmlns="http://www.w3.org/2000/svg" viewBox="0 0 275.03 77.28"><defs><style>.cls-1{fill:none;stroke:#1d1d1b;stroke-miterlimit:10;stroke-width:0.4px;}.cls-2{fill:#1d1d1b;}</style></defs><rect class="cls-1" x="108.77" y="3.67" width="48.35" height="70.87" rx="24.18"/><path class="cls-1" d="M131.46,72.47A20.36,20.36,0,0,0,142.41,63c.57-1.12,4.81-9.83-.34-17.25a17,17,0,0,0-10.61-6.59,16.61,16.61,0,0,1-10.6-6.64c-5.06-7.44-.89-16.17-.34-17.25a20.36,20.36,0,0,1,10.94-9.5h0c-8.43,0-14.44,5.82-14.73,6.11a20.79,20.79,0,0,0-6.11,14.74v25a20.84,20.84,0,0,0,20.84,20.84h0"/><path class="cls-1" d="M131.46,72.43A20.58,20.58,0,0,0,139.14,63c.12-.29.28-.71.46-1.25a19.54,19.54,0,0,0-.46-13.47,19.16,19.16,0,0,0-11-10.1"/><path class="cls-1" d="M134.42,5.73a20.41,20.41,0,0,0-10.95,9.5c-.57,1.13-4.81,9.84.35,17.25a17,17,0,0,0,10.6,6.6A16.64,16.64,0,0,1,145,45.71c5.06,7.45.88,16.18.34,17.25a20.39,20.39,0,0,1-11,9.51h0c8.44,0,14.45-5.82,14.74-6.11a20.7,20.7,0,0,0,6.1-14.74v-25A20.84,20.84,0,0,0,134.42,5.77h0"/><path class="cls-1" d="M134.42,5.77a20.58,20.58,0,0,0-7.68,9.45c-.11.29-.27.71-.45,1.25a19.55,19.55,0,0,0,.45,13.46,19.16,19.16,0,0,0,11,10.11"/><path class="cls-2" d="M15.87,24.18l-.16,0-1.2-3a1.24,1.24,0,0,0-.39-.6,1.32,1.32,0,0,0-.69-.14H9.37v6.14h2.9a1.08,1.08,0,0,0,.68-.16,1,1,0,0,0,.28-.62l.34-1.62h.24V29.3h-.24l-.34-1.62a1,1,0,0,0-.28-.62,1.08,1.08,0,0,0-.68-.16H9.37v6.78l2,.16V34H6.19v-.16l1.64-.16V20.52l-1.64-.16V20.2h9.36Z"/><path class="cls-2" d="M27.8,20.84a6.58,6.58,0,0,1,2.28,2.61,8.44,8.44,0,0,1,0,7.3,6.58,6.58,0,0,1-2.28,2.61,5.78,5.78,0,0,1-6.38,0,6.74,6.74,0,0,1-2.28-2.61,8.44,8.44,0,0,1,0-7.3,6.74,6.74,0,0,1,2.28-2.61,5.78,5.78,0,0,1,6.38,0ZM21.37,32.25a3.8,3.8,0,0,0,6.48,0A9.69,9.69,0,0,0,29,27.1a9.73,9.73,0,0,0-1.14-5.16,3.79,3.79,0,0,0-6.48,0,9.73,9.73,0,0,0-1.14,5.16A9.69,9.69,0,0,0,21.37,32.25Z"/><path class="cls-2" d="M45.57,33.84V34H43.51a1.5,1.5,0,0,1-.72-.14,1.56,1.56,0,0,1-.5-.54l-3.06-4.94a1.64,1.64,0,0,0-.47-.57,1.5,1.5,0,0,0-.67-.11H36.61v6l1.74.16V34H33.43v-.16l1.64-.16V20.52l-1.64-.16V20.2h5.06a5.85,5.85,0,0,1,3.6.95,3.24,3.24,0,0,1,1.24,2.75,3.43,3.43,0,0,1-.76,2.3,4,4,0,0,1-2.2,1.24h0l3.66,5.72a1.49,1.49,0,0,0,.51.54,1.57,1.57,0,0,0,.73.14Zm-9-13.4v7h1.82a3,3,0,0,0,2.37-.85,3.77,3.77,0,0,0,.77-2.61,3.82,3.82,0,0,0-.78-2.64,3,3,0,0,0-2.36-.86Z"/><path class="cls-2" d="M46.51,20.2h4.82v.16l-1.64.16V33.68l1.64.16V34H46.51v-.16l1.64-.16V20.52l-1.64-.16Z"/><path class="cls-2" d="M67.29,20.2v.16l-1.44.16a1,1,0,0,0-.64.24,1.06,1.06,0,0,0-.16.66v12.9h-.2l-9-12.74h-.08v11.2a1.35,1.35,0,0,0,.12.67.61.61,0,0,0,.48.23l1.42.16V34H53.43v-.16l1.44-.16a.61.61,0,0,0,.48-.23,1.35,1.35,0,0,0,.12-.67V21.14L55.39,21a1.24,1.24,0,0,0-1.26-.66h-.34V20.2h3l7.88,11h.08V21.42a1.39,1.39,0,0,0-.12-.68.55.55,0,0,0-.48-.22l-1.62-.16V20.2Z"/><path class="cls-2" d="M81.91,33.84V34h-3l-5.42-7.16-1.12,1.28v5.56l1.74.16V34H69.21v-.16l1.64-.16V20.52l-1.64-.16V20.2h4.92v.16l-1.74.16v7.24l5.44-6.28a1.11,1.11,0,0,0,.32-.62c0-.13-.1-.23-.31-.3a7.58,7.58,0,0,0-1.25-.2V20.2h4.08v.16a7.67,7.67,0,0,0-1.57.38,2.69,2.69,0,0,0-.87.7l-3.66,4.2,5.78,7.56a2.19,2.19,0,0,0,.63.51,2.1,2.1,0,0,0,.85.13Z"/><path class="cls-2" d="M91.84,20.84a6.58,6.58,0,0,1,2.28,2.61,8.44,8.44,0,0,1,0,7.3,6.58,6.58,0,0,1-2.28,2.61,5.78,5.78,0,0,1-6.38,0,6.66,6.66,0,0,1-2.28-2.61,8.44,8.44,0,0,1,0-7.3,6.66,6.66,0,0,1,2.28-2.61,5.78,5.78,0,0,1,6.38,0ZM85.41,32.25a3.8,3.8,0,0,0,6.48,0A9.69,9.69,0,0,0,93,27.1a9.73,9.73,0,0,0-1.14-5.16,3.79,3.79,0,0,0-6.48,0,9.73,9.73,0,0,0-1.14,5.16A9.69,9.69,0,0,0,85.41,32.25Z"/><path class="cls-2" d="M43.77,57.84V58h-3l-5.42-7.16-1.12,1.28v5.56l1.74.16V58H31.07v-.16l1.64-.16V44.52l-1.64-.16V44.2H36v.16l-1.74.16v7.24l5.44-6.28a1,1,0,0,0,.32-.62c0-.13-.1-.23-.31-.3a7.38,7.38,0,0,0-1.25-.2V44.2h4.08v.16a7.86,7.86,0,0,0-1.57.38,2.69,2.69,0,0,0-.87.7l-3.66,4.2,5.78,7.56a2.19,2.19,0,0,0,.63.51,2.13,2.13,0,0,0,.85.13Z"/><path class="cls-2" d="M49.71,58.32A5.92,5.92,0,0,1,47.89,58a4.51,4.51,0,0,1-1.5-.81L46,58.32h-.26l-.26-4.78.18,0a14.44,14.44,0,0,0,.61,2.12,4.59,4.59,0,0,0,.81,1.32,3.45,3.45,0,0,0,2.7,1.14A3.19,3.19,0,0,0,52,57.33a2.64,2.64,0,0,0,.81-2,2.57,2.57,0,0,0-.43-1.52,3.55,3.55,0,0,0-1.17-1.06,19.38,19.38,0,0,0-2.08-1,14.73,14.73,0,0,1-1.84-1,4.09,4.09,0,0,1-1.23-1.22,3.33,3.33,0,0,1-.49-1.83,3.66,3.66,0,0,1,2-3.33,4.44,4.44,0,0,1,2.11-.49,4,4,0,0,1,1.53.28,6.08,6.08,0,0,1,1.53.92l.48-1h.26l.2,4.36-.2.06a10.86,10.86,0,0,0-.82-2.36,3.23,3.23,0,0,0-3.06-2.06,2.78,2.78,0,0,0-2,.71,2.88,2.88,0,0,0-.33,3.41,3.71,3.71,0,0,0,1.14,1c.49.29,1.18.65,2.07,1.06a13.79,13.79,0,0,1,1.93,1,3.94,3.94,0,0,1,1.18,1.19,3.21,3.21,0,0,1,.45,1.75,3.83,3.83,0,0,1-.56,2.07,3.9,3.9,0,0,1-1.55,1.43A4.67,4.67,0,0,1,49.71,58.32Z"/><path class="cls-2" d="M67.11,53.8l-.5,4.2h-9.8v-.16l1.64-.16V44.52l-1.64-.16V44.2h9.82L66.91,48l-.2,0-1.12-2.8a1.24,1.24,0,0,0-.39-.6,1.32,1.32,0,0,0-.69-.14H60v6.14h3a1.08,1.08,0,0,0,.68-.16,1,1,0,0,0,.28-.62l.34-1.62h.24V53.3h-.24l-.34-1.62a1,1,0,0,0-.28-.62A1.08,1.08,0,0,0,63,50.9H60v6.86h4.48a1,1,0,0,0,1.1-.74l1.32-3.24Z"/><path class="cls-2" d="M83.45,44.2v.16L82,44.52a1,1,0,0,0-.64.24,1,1,0,0,0-.16.66v12.9H81L72,45.58H72v11.2a1.35,1.35,0,0,0,.12.67.61.61,0,0,0,.48.23l1.42.16V58H69.59v-.16L71,57.68a.61.61,0,0,0,.48-.23,1.35,1.35,0,0,0,.12-.67V45.14L71.55,45a1.55,1.55,0,0,0-.53-.53,1.59,1.59,0,0,0-.73-.13H70V44.2h3l7.88,11h.08V45.42a1.39,1.39,0,0,0-.12-.68.55.55,0,0,0-.48-.22l-1.62-.16V44.2Z"/><path class="cls-2" d="M97.25,44.2v.16l-1.12.1a1.34,1.34,0,0,0-.67.19,1.75,1.75,0,0,0-.41.61l-3.48,7.26v5.16l1.74.16V58h-5v-.16L90,57.68V52.62l-4.34-8.1-1.64-.16V44.2h5v.16l-1.74.16,4.06,7.58h.1l3.28-6.84a.84.84,0,0,0,.08-.38.34.34,0,0,0-.14-.3.82.82,0,0,0-.46-.12L93,44.36V44.2Z"/><path class="cls-2" d="M179.21,29.8l-.5,4.2h-9.8v-.16l1.64-.16V20.52l-1.64-.16V20.2h9.82L179,24l-.2,0-1.12-2.8a1.24,1.24,0,0,0-.39-.6,1.32,1.32,0,0,0-.69-.14h-4.52v6.14h3a1.08,1.08,0,0,0,.68-.16,1,1,0,0,0,.28-.62l.34-1.62h.24V29.3h-.24L176,27.68a1,1,0,0,0-.28-.62,1.08,1.08,0,0,0-.68-.16h-3v6.86h4.48a1.25,1.25,0,0,0,.7-.15,1.29,1.29,0,0,0,.4-.59L179,29.78Z"/><path class="cls-2" d="M191.91,20.46l-1.22-.1V20.2H195v.16l-1.13.1a1.52,1.52,0,0,0-.71.19,1.25,1.25,0,0,0-.37.61l-4.9,13.06h-.35l-5.07-13.8-1.64-.16V20.2h5v.16l-1.74.16,4.24,11.58h.08l4.06-10.84a.9.9,0,0,0,.08-.38.34.34,0,0,0-.14-.3A.82.82,0,0,0,191.91,20.46Z"/><path class="cls-2" d="M206.15,29.8l-.5,4.2h-9.8v-.16l1.65-.16V20.52l-1.65-.16V20.2h9.82L206,24l-.21,0-1.12-2.8a1.31,1.31,0,0,0-.38-.6,1.39,1.39,0,0,0-.7-.14H199v6.14h3a1.06,1.06,0,0,0,.67-.16,1,1,0,0,0,.29-.62l.33-1.62h.25V29.3h-.25L203,27.68a1,1,0,0,0-.29-.62,1.06,1.06,0,0,0-.67-.16h-3v6.86h4.47a1.25,1.25,0,0,0,.7-.15,1.21,1.21,0,0,0,.4-.59l1.32-3.24Z"/><path class="cls-2" d="M222.49,20.2v.16l-1.44.16a1,1,0,0,0-.64.24,1.06,1.06,0,0,0-.16.66v12.9h-.2l-9-12.74H211v11.2a1.35,1.35,0,0,0,.12.67.61.61,0,0,0,.48.23l1.42.16V34h-4.38v-.16l1.44-.16a.61.61,0,0,0,.48-.23,1.35,1.35,0,0,0,.12-.67V21.14l-.08-.12a1.24,1.24,0,0,0-1.26-.66H209V20.2h3l7.88,11h.08V21.42a1.39,1.39,0,0,0-.12-.68.55.55,0,0,0-.48-.22l-1.62-.16V20.2Z"/><path class="cls-2" d="M229.39,20.42h-2.64a1.28,1.28,0,0,0-.7.15,1.51,1.51,0,0,0-.42.61l-1.38,3.08-.16,0,.78-4.34H225a4,4,0,0,0,.75.26,4.3,4.3,0,0,0,.79.06h7.7a4.23,4.23,0,0,0,.79-.06,3.55,3.55,0,0,0,.75-.26h.12l.44,4.34-.16,0-1.24-3.08a1.33,1.33,0,0,0-.39-.61,1.22,1.22,0,0,0-.69-.15h-2.92V33.68l2.16.16V34h-5.86v-.16l2.16-.16Z"/><path class="cls-2" d="M183.09,44.52V57.68l1.74.16V58h-4.92v-.16l1.64-.16V45.5h-.08l-4.82,12.82h-.2l-5.38-12.84H171v11.3a1.35,1.35,0,0,0,.12.67.61.61,0,0,0,.48.23l1.42.16V58h-4.38v-.16l1.44-.16a.61.61,0,0,0,.48-.23,1.35,1.35,0,0,0,.12-.67v-12a.74.74,0,0,0-.35-.33,1.6,1.6,0,0,0-.61-.09h-.92V44.2h3.42l4.92,11.74h.08l4.4-11.74h3.22v.16Z"/><path class="cls-2" d="M199.79,57.84V58h-4.9v-.16l1.64-.2-1.88-5.12h-4.84l-1.66,4.42a1.25,1.25,0,0,0-.08.36.36.36,0,0,0,.13.31,1.22,1.22,0,0,0,.47.13l1.22.1V58h-4.26v-.16l1.12-.1a1.37,1.37,0,0,0,.71-.2,1.29,1.29,0,0,0,.37-.6l4.9-13.06h.36l5,13.76Zm-5.26-5.64-2.24-6.1h-.08l-2.28,6.1Z"/><path class="cls-2" d="M214.65,44.2v.16l-1.44.16a1,1,0,0,0-.64.24,1.06,1.06,0,0,0-.16.66v12.9h-.2l-9-12.74h-.08v11.2a1.35,1.35,0,0,0,.12.67.61.61,0,0,0,.48.23l1.42.16V58h-4.38v-.16l1.44-.16a.61.61,0,0,0,.48-.23,1.35,1.35,0,0,0,.12-.67V45.14l-.08-.12a1.24,1.24,0,0,0-1.26-.66h-.34V44.2h3l7.88,11h.08V45.42a1.39,1.39,0,0,0-.12-.68.55.55,0,0,0-.48-.22l-1.62-.16V44.2Z"/><path class="cls-2" d="M229,57.84V58h-4.9v-.16l1.64-.2-1.88-5.12H219l-1.66,4.42a1.25,1.25,0,0,0-.08.36.36.36,0,0,0,.13.31,1.22,1.22,0,0,0,.47.13l1.22.1V58h-4.26v-.16l1.12-.1a1.37,1.37,0,0,0,.71-.2,1.29,1.29,0,0,0,.37-.6L222,43.88h.36l5,13.76Zm-5.26-5.64-2.24-6.1h-.08l-2.28,6.1Z"/><path class="cls-2" d="M239.49,51.42l-1.44-.16V51.1h4.62v.16l-1.64.16v5.22a5.79,5.79,0,0,1-2.34,1.28,8.69,8.69,0,0,1-2.42.4,5.67,5.67,0,0,1-3.19-1,6.74,6.74,0,0,1-2.28-2.61,8.42,8.42,0,0,1,0-7.29,6.68,6.68,0,0,1,2.27-2.62,5.59,5.59,0,0,1,3.16-1,6.16,6.16,0,0,1,1.81.29,11.72,11.72,0,0,1,2.07.91l.48-1h.26l.2,4.5-.28.08a7.42,7.42,0,0,0-.88-2.54,4.25,4.25,0,0,0-1.53-1.51,4.14,4.14,0,0,0-2.07-.53A3.64,3.64,0,0,0,233,45.94a9.73,9.73,0,0,0-1.14,5.16A9.73,9.73,0,0,0,233,56.26a3.62,3.62,0,0,0,3.24,1.82,3.93,3.93,0,0,0,1.86-.45,3.64,3.64,0,0,0,1.36-1.17Z"/><path class="cls-2" d="M254.89,53.8l-.5,4.2h-9.8v-.16l1.64-.16V44.52l-1.64-.16V44.2h9.82l.28,3.76-.2,0-1.12-2.8a1.24,1.24,0,0,0-.39-.6,1.32,1.32,0,0,0-.69-.14h-4.52v6.14h3a1.08,1.08,0,0,0,.68-.16,1,1,0,0,0,.28-.62l.34-1.62h.24V53.3H252l-.34-1.62a1,1,0,0,0-.28-.62,1.08,1.08,0,0,0-.68-.16h-3v6.86h4.48a1.25,1.25,0,0,0,.7-.15,1.29,1.29,0,0,0,.4-.59l1.32-3.24Z"/><path class="cls-2" d="M269.81,57.84V58h-2.06a1.5,1.5,0,0,1-.72-.14,1.66,1.66,0,0,1-.5-.54l-3.06-4.94a1.54,1.54,0,0,0-.47-.57,1.47,1.47,0,0,0-.67-.11h-1.48v6l1.74.16V58h-4.92v-.16l1.64-.16V44.52l-1.64-.16V44.2h5.06a5.83,5.83,0,0,1,3.6.95,3.24,3.24,0,0,1,1.24,2.75,3.43,3.43,0,0,1-.76,2.3,4,4,0,0,1-2.2,1.24h0l3.66,5.72a1.67,1.67,0,0,0,.51.54,1.57,1.57,0,0,0,.73.14Zm-9-13.4v7h1.82a3,3,0,0,0,2.37-.85,3.77,3.77,0,0,0,.77-2.61A3.82,3.82,0,0,0,265,45.3a3,3,0,0,0-2.36-.86Z"/></svg>